<svg width="78" height="78" viewBox="0 0 78 78" fill="none" xmlns="http://www.w3.org/2000/svg">
<g filter="url(#filter0_d_1_17)">
<circle cx="39" cy="35" r="34.5" fill="#003D5D" stroke="white"/>
<g clip-path="url(#clip0_1_17)">
<path d="M52.4957 30.0671H36.0202C35.7335 30.0671 35.501 30.2996 35.501 30.5863C35.501 30.8731 35.7335 31.1055 36.0202 31.1055H52.4957C52.7824 31.1055 53.0149 30.8731 53.0149 30.5863C53.0149 30.2996 52.7824 30.0671 52.4957 30.0671Z" fill="white"/>
<path d="M52.4957 34.0361H36.0202C35.7335 34.0361 35.501 34.2686 35.501 34.5553C35.501 34.842 35.7335 35.0745 36.0202 35.0745H52.4957C52.7824 35.0745 53.0149 34.842 53.0149 34.5553C53.0149 34.2686 52.7824 34.0361 52.4957 34.0361Z" fill="white"/>
<path d="M52.4957 38.0049H36.0202C35.7335 38.0049 35.501 38.2373 35.501 38.5241C35.501 38.8108 35.7335 39.0433 36.0202 39.0433H52.4957C52.7824 39.0433 53.0149 38.8108 53.0149 38.5241C53.0149 38.2373 52.7824 38.0049 52.4957 38.0049Z" fill="white"/>
<path d="M54.1447 25.5266H34.371C32.7059 25.5266 31.3513 26.8812 31.3513 28.5463V40.9803C31.3513 42.6453 32.7058 44 34.371 44H48.2305C48.3787 44 48.5164 44.0666 48.6083 44.183L53.0841 49.8493C53.2604 50.0726 53.5178 50.1943 53.7873 50.1943C53.8875 50.1943 53.9894 50.1774 54.0893 50.1427C54.4581 50.0146 54.6964 49.6797 54.6964 49.2893V43.9484C56.0964 43.6869 57.1644 42.4491 57.1644 40.9803V28.5463C57.1644 26.8812 55.8099 25.5266 54.1447 25.5266ZM56.1261 40.9803C56.1261 42.0586 55.2488 42.9471 54.1705 42.9608C53.8864 42.9644 53.6579 43.1958 53.6579 43.48V48.9006L49.4232 43.5394C49.1332 43.1721 48.6985 42.9615 48.2305 42.9615H34.371C33.2785 42.9615 32.3896 42.0727 32.3896 40.9802V28.5463C32.3896 27.4538 33.2784 26.5649 34.371 26.5649H54.1447C55.2372 26.5649 56.1261 27.4538 56.1261 28.5463V40.9803Z" fill="white"/>
<path d="M29.3703 34.1113C29.0152 34.1617 28.6972 34.3446 28.4749 34.626L24.9083 39.1413V34.616C24.9083 34.3318 24.6799 34.1005 24.3958 34.0968C23.4937 34.0853 22.7598 33.3421 22.7598 32.4399V21.6159C22.7598 20.7019 23.5034 19.9583 24.4174 19.9583H41.631C42.545 19.9583 43.2886 20.7019 43.2886 21.6159V23.6187C43.2886 23.9054 43.5211 24.1379 43.8078 24.1379C44.0945 24.1379 44.327 23.9054 44.327 23.6187V21.6159C44.327 20.1293 43.1175 18.9199 41.631 18.9199H24.4174C22.9309 18.9199 21.7214 20.1293 21.7214 21.6159V32.4399C21.7214 33.7321 22.647 34.8239 23.87 35.079V39.6732C23.87 40.042 24.0951 40.3586 24.4436 40.4796C24.5381 40.5124 24.6343 40.5283 24.729 40.5283C24.9836 40.5283 25.2269 40.4133 25.3935 40.2024L29.2898 35.2697C29.346 35.1985 29.4265 35.1522 29.5163 35.1394C29.8002 35.0991 29.9977 34.8363 29.9574 34.5524C29.9171 34.2685 29.6547 34.0708 29.3703 34.1113Z" fill="white"/>
</g>
</g>
<defs>
<filter id="filter0_d_1_17" x="0" y="0" width="78" height="78" filterUnits="userSpaceOnUse" color-interpolation-filters="sRGB">
<feFlood flood-opacity="0" result="BackgroundImageFix"/>
<feColorMatrix in="SourceAlpha" type="matrix" values="0 0 0 0 0 0 0 0 0 0 0 0 0 0 0 0 0 0 127 0" result="hardAlpha"/>
<feOffset dy="4"/>
<feGaussianBlur stdDeviation="2"/>
<feColorMatrix type="matrix" values="0 0 0 0 0 0 0 0 0 0 0 0 0 0 0 0 0 0 0.25 0"/>
<feBlend mode="normal" in2="BackgroundImageFix" result="effect1_dropShadow_1_17"/>
<feBlend mode="normal" in="SourceGraphic" in2="effect1_dropShadow_1_17" result="shape"/>
</filter>
<clipPath id="clip0_1_17">
<rect width="35.443" height="35.443" fill="white" transform="translate(21.7214 16.8354)"/>
</clipPath>
</defs>
</svg>
