<?xml version="1.0" encoding="UTF-8"?>
<svg id="Layer_1" data-name="Layer 1" xmlns="http://www.w3.org/2000/svg" viewBox="0 0 1282.13 357.25">
  <defs>
    <style>
      .cls-1 {
        fill: #09568d;
      }

      .cls-1, .cls-2 {
        fill-rule: evenodd;
      }

      .cls-3 {
        font-family: DessauMedium, Dessau;
        font-size: 207.15px;
      }

      .cls-4 {
        letter-spacing: 0em;
      }

      .cls-4, .cls-5, .cls-6, .cls-7, .cls-8 {
        fill: #08568d;
      }

      .cls-9, .cls-10, .cls-11, .cls-2 {
        fill: #a0be3b;
      }

      .cls-9, .cls-8 {
        letter-spacing: .01em;
      }

      .cls-10 {
        letter-spacing: .01em;
      }

      .cls-11 {
        letter-spacing: 0em;
      }

      .cls-5 {
        letter-spacing: .01em;
      }

      .cls-6 {
        letter-spacing: .01em;
      }

      .cls-7 {
        letter-spacing: .01em;
      }
    </style>
  </defs>
  <text class="cls-3" transform="translate(209.31 277.53)"><tspan class="cls-7" x="0" y="0">d</tspan><tspan class="cls-5" x="119.53" y="0">e</tspan><tspan class="cls-6" x="230.56" y="0">n</tspan><tspan class="cls-4" x="338.48" y="0">t</tspan><tspan class="cls-8" x="400.42" y="0">o</tspan><tspan class="cls-9" x="515.8" y="0">ami</tspan><tspan class="cls-11" x="838.54" y="0">g</tspan><tspan class="cls-10" x="957.44" y="0">o</tspan></text>
  <path class="cls-1" d="m133.17,26.59C102.97,8.87,51.67-13.89,18.96,10.95,4.47,21.99-1.64,40.97.37,58.6c2.81,24.29,17.06,43.35,27.7,64.53,19.56,38.76,15.59,63.41,9.17,103.45-4.77,29.59-13.7,74.37-.92,103.15,6.24,14.14,17.06,21.97,29.65,27.51-7.83-10.61-13.82-22.1-17.49-34.68-6.36-21.97-3.97-44.85-.49-67.09,4.95-31.67,23.29-61.16,25.68-91.97,1.16-15.81-3.67-30.5-10.82-44.4-11.56-22.33-46.16-57.8-22.32-83.61,10.21-11.08,29.22-15.5,48.55-15.22,15.53.24,29.71,3.42,44.08,6.3Zm-60.1,327.17c5.32-28.97,16.02-91.32,36.44-128.32,6.36-11.46,25.74-39.69,40.66-22.85,2.69,3.08,5.01,7.09,7.28,10.94,5.26,8.88,9.72,19.94,13.94,31.71,7.15-27.49-.55-57.84-26.54-72.13-5.32-2.91-11.37-5.01-16.87-2.7-14.86,6.28-27.94,29.95-37.42,53.52-10.7,26.56-18.59,54.64-20.05,83.35-.86,16.69.43,31.88,2.57,46.47Z"/>
  <path class="cls-2" d="m84.38,49.71c6.48,3.15,13.51,4.61,20.97,4.54,26.9-.34,47.32-20.44,70.86-31.31,15.41-7.12,36.01-16.02,52.89-8.6,39.19,17.12,18.34,69.06,5.99,97.27-3.42,7.71-6.91,15.02-10.46,22.19-1.04-3.61-1.53-8.12-1.22-13.76,1.04-21.07,12.53-39.5,7.83-61.12-3.85-17.58-17.3-24.1-33.75-22.24-20.79,2.34-38.27,12.78-57.17,20.77-14.61,6.16-35.52,12.33-49.28,1.29-3.18-2.58-5.44-5.59-6.66-9.05Z"/>
</svg>